<svg width="28" height="28" viewBox="0 0 28 28" fill="none" xmlns="http://www.w3.org/2000/svg">
<g clip-path="url(#clip0_1_416)">
<g clip-path="url(#clip1_1_416)">
<g clip-path="url(#clip2_1_416)">
<path d="M14.07 27.0433C13.7609 27.0433 13.51 26.7925 13.51 26.4833V2.21407L2.16999 15.0941C2.06359 15.2139 1.91015 15.2833 1.74999 15.2833C1.61335 15.2833 1.48231 15.2341 1.38039 15.1433C1.14855 14.9395 1.12615 14.5845 1.32999 14.3526L12.8111 1.31359C12.8582 1.26095 12.9074 1.21055 12.9601 1.16463C13.2468 0.912629 13.6052 0.770389 13.9983 0.752469C14.0162 0.749109 14.0409 0.744629 14.07 0.744629C14.0834 0.744629 14.1014 0.745749 14.1182 0.749109C14.1226 0.746869 14.1361 0.746869 14.1495 0.746869C14.6244 0.775989 15.0343 0.976469 15.3311 1.31359L26.8111 14.3537C27.015 14.5856 26.9926 14.9406 26.7607 15.1445C26.6577 15.2341 26.5255 15.2833 26.39 15.2833C26.2287 15.2833 26.0764 15.2139 25.97 15.0941L14.63 2.21183V26.4833C14.63 26.7925 14.378 27.0433 14.07 27.0433Z" fill="black"/>
</g>
</g>
</g>
<defs>
<clipPath id="clip0_1_416">
<rect width="26.88" height="26.88" fill="white" transform="translate(0.630005 0.450195)"/>
</clipPath>
<clipPath id="clip1_1_416">
<rect width="26.88" height="26.88" fill="white" transform="translate(0.630005 0.450195)"/>
</clipPath>
<clipPath id="clip2_1_416">
<rect width="26.88" height="26.88" fill="white" transform="translate(0.630005 0.450195)"/>
</clipPath>
</defs>
</svg>
