<svg width="117" height="99" viewBox="0 0 117 99" fill="none" xmlns="http://www.w3.org/2000/svg">
<rect width="116" height="98" transform="translate(0.5 0.830002)" fill="#181716"/>
<g clip-path="url(#clip0_1_16)">
<path fill-rule="evenodd" clip-rule="evenodd" d="M46.5 32.83C53.6797 32.83 59.5 38.6503 59.5 45.83C59.5 49.0597 58.3223 52.0143 56.3728 54.2878L66.9142 64.83L65.5 66.2442L54.9578 55.7028C52.6843 57.6523 49.7297 58.83 46.5 58.83C39.3203 58.83 33.5 53.0097 33.5 45.83C33.5 38.6503 39.3203 32.83 46.5 32.83ZM46.5 34.83C40.4249 34.83 35.5 39.7549 35.5 45.83C35.5 51.9051 40.4249 56.83 46.5 56.83C52.5751 56.83 57.5 51.9051 57.5 45.83C57.5 39.7549 52.5751 34.83 46.5 34.83Z" fill="white"/>
</g>
<defs>
<clipPath id="clip0_1_16">
<rect width="34" height="34" fill="white" transform="translate(33.5 32.83)"/>
</clipPath>
</defs>
</svg>
