<svg width="1921" height="964" viewBox="0 0 1921 964" fill="none" xmlns="http://www.w3.org/2000/svg">
<g clip-path="url(#clip0_1_3)">
<g clip-path="url(#clip1_1_3)">
<path d="M314.913 -70L319.637 -69.975C420.536 -68.922 528.282 -34.577 630.801 45.4903L640.001 52.8425C938.06 296.615 691.8 652.852 691.8 652.852L694.844 656.198C793.698 768.493 733.696 1066.04 504.345 1150.12L497.417 1152.61C269.539 1232.53 115.038 1108.08 39.3156 996.809L36.5442 992.659C-53.3669 855.465 8.82019 693.136 8.82019 693.136C5.04645 689.044 -180.468 486.242 -111.493 235.349C-65.0582 66.4188 110.49 -70.0158 314.913 -70Z" fill="white"/>
</g>
</g>
<defs>
<clipPath id="clip0_1_3">
<rect width="1920" height="963.55" fill="white" transform="translate(0.5)"/>
</clipPath>
<clipPath id="clip1_1_3">
<rect width="1248" height="1248" fill="white" transform="translate(-293.25 -70)"/>
</clipPath>
</defs>
</svg>
