<svg width="1601" height="1129" viewBox="0 0 1601 1129" fill="none" xmlns="http://www.w3.org/2000/svg">
<rect width="1600" height="1128.08" transform="translate(0.5 0.450195)" fill="#181716"/>
<g clip-path="url(#clip0_1_320)">
<g opacity="0.5">
<path fill-rule="evenodd" clip-rule="evenodd" d="M692.722 51.743C764.495 42.5032 826.534 53.2652 879.498 81.3048C954.293 120.902 1006.22 191.336 1039.47 276.816C1046.89 295.898 1052.74 314.236 1057.18 331.173C1058.48 336.116 1059.58 340.645 1060.49 344.711L1061.9 351.403L1062.78 351.434C1120.04 354.114 1181.48 402.355 1219.7 473.305L1221.28 476.275C1263.21 556.17 1269.25 649.344 1230.93 731.203C1192.78 812.686 1136.49 865.402 1066.93 892.21C1010.27 914.046 947.014 917.625 886.351 906.438C868.584 903.162 851.633 897.825 835.488 890.594C783.918 867.5 744.232 827.627 715.598 781.611C711.98 775.796 708.831 770.316 706.143 765.276L704.838 762.793C704.06 761.293 703.368 759.916 702.761 758.672L701.773 756.611L698.722 756.437C697.861 756.38 696.937 756.315 695.953 756.239C690.339 755.809 683.904 755.146 676.748 754.203C656.314 751.51 634.177 747.111 611.127 740.616C514.462 713.376 433.055 659.565 383.15 571.195C332.521 481.544 332.895 361.591 384.252 259.241C440.392 147.361 548.701 70.2877 692.722 51.743ZM387.572 260.907C336.753 362.184 336.384 480.83 386.385 569.369C435.745 656.774 516.335 710.045 612.135 737.04C635.005 743.485 656.968 747.85 677.233 750.52C683.309 751.321 688.855 751.917 693.809 752.339L698.534 752.702C700.288 752.821 701.634 752.893 702.549 752.93L703.046 752.948L702.989 754.804L704.689 754.054L705.534 755.873L706.722 758.306C707.156 759.175 707.627 760.102 708.136 761.084C711.049 766.705 714.583 772.95 718.752 779.649C747.028 825.09 786.21 864.457 837.006 887.204C852.885 894.315 869.553 899.564 887.024 902.785C947.052 913.855 1009.62 910.314 1065.59 888.744C1134.25 862.282 1189.83 810.245 1227.57 729.628C1265.37 648.877 1259.41 556.915 1217.99 478.001C1180.47 406.516 1119.21 357.822 1062.66 355.147L1060.3 355.062L1058.79 355.024L1058.19 351.758C1057.99 350.75 1057.72 349.452 1057.38 347.878C1056.39 343.275 1055.13 337.993 1053.59 332.115C1049.18 315.31 1043.38 297.106 1036.01 278.162C1003.05 193.438 951.637 123.699 877.76 84.5877C825.484 56.912 764.217 46.2841 693.196 55.4272C550.402 73.8138 443.159 150.129 387.572 260.907ZM696.782 66.5169C766.329 57.5027 826.433 67.939 877.733 95.1684C949.851 133.448 999.961 201.417 1032.1 283.879C1039.26 302.255 1044.91 319.918 1049.21 336.247C1050.72 341.972 1051.96 347.126 1052.94 351.639L1053.81 355.846L1054.68 355.881C1110.02 358.572 1169.32 405.188 1206.2 473.701L1207.77 476.651C1248.23 553.86 1254.01 643.873 1216.96 722.92C1180.11 801.573 1125.72 852.461 1058.53 878.332C1003.8 899.409 942.678 902.848 884.087 892.015C866.918 888.847 850.538 883.684 834.935 876.691C785.156 854.378 746.845 815.875 719.192 771.441C715.7 765.829 712.66 760.54 710.064 755.673L708.802 753.275C708.051 751.825 707.381 750.495 706.793 749.29L705.867 747.37L702.728 747.158C698.355 746.82 691.161 746.145 684.402 745.315L681.655 744.965C661.918 742.357 640.556 738.107 618.313 731.837C524.971 705.525 446.374 653.58 398.185 568.28C349.252 481.706 349.562 365.875 399.106 267.017C453.255 158.97 557.779 84.4994 696.782 66.5169ZM402.427 268.681C353.421 366.466 353.115 480.99 401.419 566.452C449.063 650.789 526.843 702.194 619.321 728.262C641.384 734.481 662.573 738.696 682.142 741.283L687.545 741.947C695.79 742.894 704.213 743.595 706.763 743.718L707.449 743.734L707.057 745.51L708.721 744.676L709.583 746.527L710.734 748.881C711.153 749.722 711.608 750.617 712.1 751.565C714.914 756.992 718.325 763.017 722.346 769.478C749.641 813.339 787.449 851.335 836.455 873.301C851.79 880.175 867.888 885.248 884.762 888.363C942.717 899.078 1003.15 895.677 1057.2 874.866C1123.49 849.34 1177.15 799.131 1213.6 721.343C1250.13 643.404 1244.43 554.602 1204.48 478.375C1168.29 409.339 1109.18 362.278 1054.56 359.593L1052.22 359.506L1050.76 359.468L1050.48 358.174L1049.73 354.408C1049.59 353.731 1049.44 353.046 1049.31 352.428L1048.25 347.756C1047.49 344.502 1046.62 340.974 1045.62 337.193C1041.35 320.995 1035.75 303.466 1028.64 285.227C996.794 203.519 947.195 136.244 875.991 98.4494C825.381 71.5857 766.052 61.2841 697.259 70.2007C559.483 88.0245 456.024 161.737 402.427 268.681ZM700.838 81.2881C768.16 72.4991 826.33 82.6096 875.966 109.029C945.409 145.992 993.703 211.497 1024.73 290.94C1031.63 308.611 1037.08 325.598 1041.24 341.318C1042.46 345.918 1043.5 350.138 1044.36 353.946L1045.14 357.475L1045.72 360.292L1046.58 360.325C1100.01 363.028 1157.16 408.022 1192.7 474.099L1194.25 477.028C1233.25 551.55 1238.77 638.406 1202.99 714.647C1167.43 790.465 1114.96 839.522 1050.14 864.453C997.325 884.771 938.35 888.07 881.835 877.594C865.277 874.534 849.478 869.552 834.431 862.804C786.415 841.274 749.46 804.131 722.783 761.265C718.857 754.958 715.523 749.071 712.767 743.758L711.42 741.114L709.935 738.066L706.617 737.835C702.72 737.526 696.739 736.963 690.909 736.274L686.566 735.731C667.527 733.207 646.939 729.106 625.502 723.062C535.483 697.678 459.695 647.597 413.222 565.366C365.987 481.867 366.232 370.159 413.961 274.793C466.118 170.582 566.854 98.7126 700.838 81.2881ZM417.283 276.456C370.091 370.748 369.849 481.149 416.455 563.538C462.384 644.806 537.355 694.346 626.51 719.486C647.767 725.48 668.183 729.547 687.054 732.049L692.246 732.689L693.204 732.798C700.386 733.608 707.557 734.22 710.365 734.39L711.499 734.431L711.129 736.211L712.806 735.407L713.634 737.185L714.746 739.458C715.15 740.269 715.59 741.133 716.064 742.047C718.777 747.277 722.063 753.08 725.936 759.303C752.257 801.595 788.708 838.231 835.951 859.415C850.732 866.043 866.247 870.936 882.511 873.942C938.391 884.3 996.68 881.039 1048.81 860.986C1112.73 836.4 1164.47 788.022 1199.63 713.069C1234.89 637.934 1229.44 552.29 1190.96 478.75C1156.12 412.162 1099.16 366.733 1046.45 364.038L1042.67 363.907L1041.23 356.976L1040.2 352.458C1039.47 349.315 1038.62 345.914 1037.65 342.269C1033.53 326.679 1028.12 309.825 1021.27 292.292C990.537 213.599 942.752 148.786 874.22 112.308C825.276 86.2563 767.884 76.2811 701.318 84.9716C568.56 102.237 468.888 173.346 417.283 276.456ZM704.9 96.0633C769.992 87.5002 826.226 97.2844 874.196 122.893C940.968 158.538 987.449 221.582 1017.36 298.01C1024 314.975 1029.25 331.286 1033.27 346.395L1034.6 351.534C1035.23 354.015 1035.79 356.362 1036.29 358.568L1037.06 362.012L1037.62 364.739L1038.48 364.774C1089.99 367.488 1145 410.86 1179.2 474.502L1180.74 477.408C1218.27 549.244 1223.54 632.938 1189.01 706.369C1154.75 779.355 1104.19 826.583 1041.75 850.577C990.848 870.136 934.014 873.297 879.578 863.177C863.628 860.226 848.41 855.422 833.915 848.918C787.672 828.169 752.08 792.39 726.378 751.095C723.14 745.892 720.319 740.986 717.906 736.467L716.733 734.241C716.033 732.892 715.41 731.653 714.86 730.529L714.011 728.763L710.764 728.533C707.359 728.258 702.291 727.782 697.184 727.197L691.476 726.494C673.134 724.054 653.321 720.102 632.693 714.282C545.997 689.825 473.019 641.608 428.259 562.443C382.721 482.02 382.9 374.436 428.816 282.564C478.982 182.188 575.933 112.924 704.9 96.0633ZM432.139 284.225C386.76 375.023 386.582 481.301 431.492 560.614C475.707 638.816 547.869 686.493 633.701 710.707C652.447 715.996 670.513 719.728 687.392 722.176L691.966 722.812C701.207 724.042 712.885 725.038 715.241 725.13L715.584 725.136L715.201 726.912L716.873 726.102L717.685 727.841L718.759 730.035C719.149 730.816 719.573 731.649 720.03 732.529C722.644 737.565 725.806 743.147 729.532 749.132C754.877 789.854 789.965 825.126 835.435 845.529C849.664 851.913 864.599 856.628 880.255 859.525C934.057 869.527 990.205 866.404 1040.42 847.11C1101.96 823.46 1151.8 776.911 1185.65 704.79C1219.65 632.464 1214.46 549.981 1177.45 479.128C1143.94 414.989 1089.13 371.192 1038.34 368.486L1036.03 368.391L1034.57 368.349L1033.15 361.528L1032.15 357.166C1031.44 354.135 1030.62 350.858 1029.68 347.35C1025.7 332.371 1020.49 316.192 1013.9 299.364C984.283 223.685 938.31 161.33 872.447 126.17C825.169 100.931 769.718 91.2829 705.383 99.7464C577.641 116.446 481.754 184.951 432.139 284.225ZM708.962 110.83C771.828 102.492 826.126 111.951 872.432 136.752C936.527 171.08 981.192 231.661 1009.99 305.072C1016.37 321.331 1021.42 336.967 1025.3 351.468C1026.44 355.725 1027.41 359.638 1028.23 363.186L1028.97 366.506L1029.53 369.181L1030.38 369.218C1079.98 371.942 1132.84 413.693 1165.7 474.9L1167.23 477.783C1203.28 546.932 1208.3 627.468 1175.04 698.096C1142.08 768.246 1093.43 813.642 1033.36 836.696C984.376 855.495 929.683 858.517 877.317 848.755C861.972 845.912 847.33 841.286 833.385 835.024C788.917 815.056 754.69 780.64 729.968 740.92C726.857 735.922 724.146 731.207 721.826 726.863L720.698 724.722C720.024 723.424 719.423 722.231 718.892 721.148L718.079 719.46L714.577 719.202C710.646 718.875 704.664 718.293 699.047 717.599L696.386 717.258C678.742 714.902 659.703 711.099 639.882 705.505C556.508 681.975 486.341 635.625 443.297 559.529C399.458 482.181 399.573 378.719 443.675 290.339C491.849 193.796 585.014 127.132 708.962 110.83ZM446.998 291.997C403.432 379.303 403.319 481.46 446.529 557.699C489.029 632.832 558.381 678.644 640.891 701.93C658.748 706.97 675.964 710.542 692.077 712.904L696.878 713.576C705.684 714.752 716.858 715.718 719.263 715.827L719.661 715.833L719.273 717.614L720.954 716.822L721.736 718.497C722.207 719.48 722.747 720.574 723.359 721.775L723.995 723.011C726.507 727.849 729.544 733.21 733.122 738.957C757.487 778.104 791.211 812.014 834.906 831.635C848.586 837.778 862.944 842.314 877.996 845.103C929.728 854.747 983.733 851.763 1032.03 833.229C1091.2 810.518 1139.12 765.8 1171.68 696.515C1204.41 626.992 1199.48 547.666 1163.93 479.501C1131.77 417.809 1079.11 375.645 1030.23 372.93L1027.95 372.832L1026.49 372.788L1025.08 366.078L1024.11 361.871C1023.41 358.95 1022.62 355.799 1021.71 352.428C1017.87 338.056 1012.86 322.551 1006.53 306.428C978.027 233.764 933.868 173.87 870.678 140.026C825.067 115.598 771.554 106.275 709.448 114.512C586.724 130.654 494.623 196.557 446.998 291.997ZM713.023 125.605C773.666 117.49 826.032 126.625 870.676 150.622C932.094 183.634 974.944 241.752 1002.63 312.143C1008.74 327.695 1013.6 342.656 1017.34 356.545C1018.39 360.468 1019.3 364.089 1020.07 367.396L1020.88 370.963L1021.45 373.628L1022.24 373.66C1069.95 376.375 1120.7 416.53 1152.23 475.344L1153.72 478.159C1188.3 544.621 1193.06 621.996 1161.07 689.81C1129.4 757.132 1082.66 800.702 1024.96 822.821C977.896 840.862 925.345 843.744 875.056 834.334C860.308 831.598 846.236 827.147 832.834 821.121C790.157 801.934 757.304 768.889 733.564 730.751C730.082 725.156 727.12 719.931 724.665 715.205L722.927 711.767L722.147 710.157L719.758 709.984C716.344 709.71 710.756 709.178 705.322 708.53L701.295 708.021C684.347 705.748 666.083 702.095 647.069 696.726C567.016 674.123 499.658 629.637 458.33 556.61C416.189 482.341 416.24 383.003 458.528 298.117C504.713 205.409 594.092 141.347 713.023 125.605ZM461.853 299.773C420.1 383.586 420.049 481.618 461.561 554.779C502.345 626.844 568.889 670.792 648.078 693.151C666.915 698.47 685.008 702.089 701.789 704.34L705.694 704.832C712.787 705.678 720.342 706.342 722.896 706.5L723.724 706.534L723.341 708.328L725.023 707.519L725.946 709.489C726.205 710.026 726.502 710.629 726.838 711.296L727.961 713.493C730.373 718.136 733.287 723.277 736.717 728.788C760.101 766.354 792.451 798.893 834.357 817.733C847.493 823.639 861.281 828 875.737 830.682C991.806 852.401 1099.98 810.936 1157.71 688.227C1189.18 621.517 1184.5 545.353 1150.42 479.873C1119.58 420.613 1069.06 380.075 1022.09 377.372L1019.86 377.272L1018.4 377.226L1017.79 374.291C1017.57 373.207 1017.31 371.997 1017 370.629C1016.13 366.744 1015.06 362.362 1013.75 357.511C1010.05 343.75 1005.23 328.92 999.169 313.502C971.779 243.855 929.434 186.421 868.918 153.894C824.971 130.272 773.393 121.274 713.513 129.287C595.805 144.868 507.489 208.168 461.853 299.773ZM717.082 140.378C775.498 132.485 825.929 141.295 868.91 164.482C927.66 196.177 968.697 251.839 995.262 319.217C1001.12 334.064 1005.77 348.35 1009.37 361.626C1010.39 365.385 1011.26 368.859 1012.01 372.038L1012.84 375.66L1013.35 378.075L1014.1 378.109C1059.92 380.814 1108.56 419.371 1138.76 475.791L1140.2 478.535C1173.32 542.31 1177.82 616.527 1147.09 681.539C1090.96 800.725 985.519 841.083 872.801 819.91C858.664 817.283 845.175 813.012 832.327 807.232C791.414 788.827 759.917 757.141 737.152 720.572C733.818 715.216 730.982 710.214 728.627 705.685L726.957 702.384L726.214 700.854L722.626 700.574C719.363 700.291 714.753 699.836 710.256 699.299L706.206 698.787C689.959 696.6 672.471 693.096 654.264 687.953C577.535 666.279 512.983 623.655 473.369 553.69C432.925 482.498 432.911 387.283 473.384 305.89C517.577 217.017 603.17 155.558 717.082 140.378ZM476.71 307.544C436.771 387.863 436.785 481.772 476.6 551.857C515.67 620.862 579.407 662.948 655.274 684.379C671.5 688.962 687.15 692.231 701.84 694.417L706.701 695.106C713.107 695.968 720.989 696.725 725.086 697.056L727.788 697.235L727.413 699.02L729.095 698.225L729.987 700.129C730.363 700.904 730.817 701.819 731.356 702.872L731.923 703.972C734.235 708.418 737.024 713.337 740.305 718.609C762.715 754.606 793.709 785.786 833.851 803.844C846.433 809.504 859.638 813.686 873.484 816.259C984.677 837.145 1088.39 797.445 1143.73 679.954C1173.94 616.045 1169.51 543.038 1136.91 480.247C1107.4 423.419 1059.01 384.511 1013.94 381.821L1011.76 381.719L1010.31 381.67L1009.47 377.639L1008.93 375.186C1008.08 371.447 1007.04 367.244 1005.78 362.597C1002.22 349.448 997.607 335.292 991.807 320.58C965.534 253.942 924.999 198.962 867.146 167.751C824.865 144.941 775.227 136.27 717.576 144.06C604.886 159.077 520.355 219.774 476.71 307.544ZM721.143 155.146C777.332 147.476 825.827 155.962 867.143 178.344C923.222 208.723 962.446 261.924 987.897 326.289C993.488 340.43 997.946 354.04 1001.4 366.705C1002.38 370.3 1003.23 373.626 1003.95 376.676L1004.76 380.162L1005.26 382.521L1006 382.555C1049.91 385.267 1096.41 422.207 1125.26 476.2L1126.69 478.914C1158.34 540.001 1162.58 611.058 1133.12 673.258C1079.37 787.229 978.388 825.824 870.544 805.494C857.015 802.975 844.106 798.883 831.811 793.346C792.67 775.722 762.537 745.401 740.747 710.402C738.092 706.137 735.766 702.105 733.759 698.372L732.018 695.053L730.286 691.546L727.682 691.348C724.533 691.081 719.691 690.607 714.983 690.042L711.115 689.55C695.564 687.446 678.85 684.091 661.45 679.174C588.043 658.428 526.303 617.67 488.406 550.777C449.66 482.659 449.582 391.567 488.242 313.665C530.444 228.626 612.249 169.768 721.143 155.146ZM491.569 315.317C453.443 392.144 453.52 481.931 491.637 548.943C528.99 614.877 589.915 655.097 662.461 675.599C679.683 680.467 696.228 683.788 711.613 685.869L715.132 686.317C720.737 686.993 726.722 687.556 729.81 687.802L731.868 687.928L731.485 689.73L733.165 688.925L734.032 690.771C734.394 691.517 734.83 692.394 735.346 693.402L735.889 694.454C738.101 698.705 740.766 703.405 743.9 708.439C765.334 742.866 794.965 772.682 833.336 789.959C845.365 795.376 857.991 799.378 871.228 801.843C977.548 821.886 1076.81 783.947 1129.76 671.671C1158.7 610.572 1154.53 540.726 1123.39 480.622C1095.22 426.239 1048.98 388.962 1005.83 386.266L1003.67 386.16L1002.23 386.109L1001.61 383.179C1001.39 382.147 1001.14 381.014 1000.85 379.74C1000.03 376.148 999.028 372.125 997.817 367.683C994.397 355.144 989.981 341.662 984.443 327.655C959.284 264.028 920.56 211.505 865.374 181.61C824.76 159.609 777.061 151.262 721.641 158.827C613.969 173.285 533.224 231.38 491.569 315.317ZM725.203 169.92C779.17 162.469 825.736 170.63 865.392 192.208C918.803 221.271 956.215 272.019 980.545 333.369C985.873 346.803 990.13 359.739 993.439 371.787C994.617 376.076 995.596 379.971 996.4 383.46L997.171 386.964L997.892 387C1039.89 389.717 1084.26 425.042 1111.77 476.609L1113.18 479.291C1143.36 537.692 1147.34 605.591 1119.15 664.985C1067.78 773.736 971.25 810.569 868.283 791.071C855.358 788.66 843.026 784.745 831.28 779.45C793.915 762.606 765.145 733.646 744.335 700.224C741.804 696.158 739.585 692.313 737.67 688.752L735.832 685.239L734.358 682.246L731.365 682.005C727.454 681.659 721.262 681.025 716.025 680.313C701.171 678.294 685.231 675.088 668.639 670.396C598.554 650.578 539.624 611.687 503.443 547.862C466.396 482.82 466.254 395.85 503.099 321.441C543.31 240.236 621.329 183.981 725.203 169.92ZM506.428 323.089C470.114 396.424 470.254 482.089 506.673 546.027C542.311 608.893 600.426 647.247 669.65 666.822C686.066 671.464 701.836 674.635 716.525 676.632L718.837 676.934C725.924 677.822 734.088 678.548 735.704 678.628L735.941 678.629L735.557 680.432L737.24 679.635L737.936 681.119L739.145 683.559C739.369 684 739.604 684.459 739.852 684.934C741.962 688.987 744.503 693.465 747.489 698.261C767.943 731.112 796.211 759.566 832.807 776.063C844.286 781.239 856.335 785.064 868.969 787.421C970.412 806.63 1065.22 770.453 1115.79 663.396C1143.46 605.102 1139.55 538.413 1109.88 480.996C1083.05 429.057 1038.95 393.41 997.711 390.711L994.136 390.546L993.29 386.553C993.142 385.88 992.974 385.132 992.781 384.295C991.988 380.854 991.021 377.009 989.857 372.771C986.583 360.848 982.368 348.041 977.092 334.738C953.054 274.123 916.139 224.051 863.617 195.471C824.666 174.276 778.901 166.256 725.706 173.601C623.052 187.496 546.092 242.988 506.428 323.089ZM729.258 184.692C781 177.461 825.631 185.298 863.625 206.072C914.371 233.819 949.975 282.114 973.187 340.454C978.251 353.182 982.307 365.443 985.471 376.875L986.739 381.599C987.132 383.114 987.497 384.57 987.835 385.966L988.589 389.177L989.075 391.41L989.743 391.448C1029.85 394.149 1072.12 427.882 1098.31 477.064L1099.67 479.667C1128.37 535.381 1132.1 600.12 1105.18 656.705C1056.18 760.243 964.127 795.306 866.03 776.651C853.716 774.349 841.966 770.614 830.774 765.565C795.176 749.505 767.767 721.909 747.931 690.054C745.523 686.186 743.411 682.528 741.585 679.136L739.556 675.247L738.422 672.94L736.495 672.788C733.701 672.547 729.211 672.103 724.83 671.575L720.934 671.077C706.779 669.141 691.614 666.084 675.829 661.617C609.066 642.724 552.946 605.696 518.481 544.941C483.127 482.977 482.918 400.132 517.949 329.216C556.168 251.846 630.402 198.193 729.258 184.692ZM521.28 330.861C486.78 400.703 486.985 482.244 521.709 543.104C555.632 602.902 610.938 639.393 676.841 658.043C692.45 662.46 707.446 665.483 721.438 667.396L724.922 667.844C729.297 668.374 733.926 668.834 736.896 669.099L740.017 669.335L739.634 671.137L741.309 670.333L741.927 671.655C742.296 672.425 742.758 673.358 743.323 674.459L743.818 675.416C745.829 679.275 748.246 683.532 751.084 688.09C770.565 719.374 797.473 746.466 832.302 762.179C843.227 767.108 854.694 770.753 866.718 773C963.292 791.366 1053.63 756.958 1101.82 655.112C1128.22 599.627 1124.57 536.098 1096.37 481.368C1070.86 431.857 1028.89 397.838 989.553 395.158L987.485 395.046L986.044 394.988L985.206 391.067L984.704 388.857C983.938 385.566 983.008 381.9 981.891 377.866C978.762 366.558 974.747 354.424 969.735 341.827C946.814 284.218 911.706 236.595 861.843 209.331C824.558 188.944 780.732 181.249 729.767 188.372C632.129 201.706 558.954 254.595 521.28 330.861ZM733.321 199.461C782.836 192.449 825.534 199.961 861.866 219.932C909.951 246.363 943.747 292.208 965.839 347.54C970.64 359.563 974.495 371.148 977.513 381.963C978.379 385.067 979.132 387.951 979.782 390.612L980.75 394.736L980.989 395.857L981.637 395.896C1019.84 398.603 1059.97 430.722 1084.82 477.483L1086.16 480.048C1113.39 533.075 1116.87 594.654 1091.21 648.43C1044.6 746.75 956.995 780.049 863.771 762.231C852.058 760.037 840.881 756.478 830.236 751.667C796.421 736.388 770.382 710.159 751.525 679.881C749.331 676.358 747.395 673.017 745.708 669.904L744.005 666.678L742.485 663.632L739.597 663.392C736.924 663.145 733.183 662.76 729.54 662.318L725.845 661.843C712.391 659.993 698.001 657.086 683.024 652.845C619.584 634.881 566.27 599.716 533.517 542.025C499.864 483.138 499.592 404.417 532.809 336.993C569.038 263.457 639.484 212.404 733.321 199.461ZM536.141 338.634C503.454 404.983 503.721 482.401 536.744 540.187C568.955 596.921 621.456 631.55 684.036 649.271C698.838 653.462 713.06 656.335 726.351 658.163L729.836 658.612C736.215 659.386 743.153 660.008 744.026 660.034L744.085 660.031L743.706 661.838L745.378 661.032L745.958 662.269C746.3 662.982 746.723 663.837 747.237 664.841L747.782 665.895C749.694 669.559 751.987 673.596 754.678 677.917C773.18 707.625 798.719 733.35 831.765 748.282C842.144 752.973 853.038 756.441 864.462 758.581C956.164 776.108 1042.04 743.463 1087.85 646.835C1112.99 594.156 1109.58 533.787 1082.85 481.745C1058.68 434.677 1018.85 402.289 981.435 399.605L979.397 399.488L977.96 399.427L976.891 394.517L976.635 393.417C975.897 390.279 975.004 386.791 973.935 382.961C970.952 372.27 967.138 360.81 962.39 348.918C940.587 294.313 907.284 249.136 860.077 223.187C824.457 203.608 782.57 196.238 733.836 203.14C641.216 215.915 571.826 266.202 536.141 338.634ZM737.381 214.237C784.672 207.44 825.438 214.628 860.11 233.799C905.533 258.915 937.522 302.311 958.494 354.633C963.029 365.949 966.683 376.858 969.553 387.053L970.532 390.6C971.272 393.346 971.838 395.617 972.342 397.793L972.902 400.304L973.489 400.339C1009.8 403.029 1047.83 433.562 1071.35 477.944L1072.64 480.424C1098.41 530.765 1101.63 589.185 1077.23 640.153C1033.03 733.207 950.068 764.638 861.506 747.809C850.524 745.722 840.039 742.374 830.046 737.869C797.853 723.356 773.062 698.43 755.108 669.657C752.517 665.504 750.304 661.619 748.453 658.082L747.03 655.288L746.561 654.329L744.248 654.131C741.382 653.867 737.059 653.418 733.059 652.91L730.756 652.605C717.998 650.838 704.384 648.081 690.214 644.065C630.095 627.029 579.594 593.729 548.559 539.107C516.6 483.296 516.262 408.698 547.666 344.767C581.902 275.068 648.563 226.618 737.381 214.237ZM551 346.405C520.125 409.26 520.457 482.555 551.785 537.267C582.278 590.935 631.968 623.698 691.227 640.492C703.667 644.017 715.675 646.561 727.036 648.307L731.266 648.925C735.672 649.535 741.179 650.113 744.69 650.446L748.157 650.733L747.773 652.544L749.451 651.739L750.362 653.647L751.744 656.36C753.553 659.816 755.719 663.62 758.26 667.691C775.858 695.893 800.147 720.316 831.572 734.483C841.303 738.87 851.509 742.128 862.199 744.16C949.236 760.699 1030.48 729.919 1073.88 638.554C1097.75 588.683 1094.6 531.472 1069.34 482.116C1046.49 437.474 1008.79 406.71 973.275 404.048L971.305 403.929L969.872 403.863L969.015 399.907C968.254 396.522 967.392 393.086 965.977 388.06C963.142 377.987 959.53 367.202 955.046 356.016C934.363 304.415 902.865 261.684 858.312 237.05C824.357 218.275 784.408 211.231 737.902 217.915C650.299 230.127 584.694 277.809 551 346.405ZM741.44 229.003C786.505 222.422 825.338 229.286 858.349 247.656C901.119 271.458 931.304 312.411 951.154 361.731C955.424 372.339 958.875 382.574 961.596 392.147L962.517 395.458C963.081 397.533 963.551 399.36 963.962 401.048L964.815 404.75L965.376 404.785C999.783 407.475 1035.69 436.398 1057.87 478.366L1059.13 480.801C1083.43 528.456 1086.38 583.717 1063.26 631.876C1021.45 719.708 942.955 749.367 859.248 733.391C848.891 731.413 839 728.25 829.572 723.996C799.13 710.264 775.688 686.692 758.701 659.48C756.746 656.348 755.018 653.377 753.509 650.604L751.914 647.591L750.634 645.03L748.086 644.801C745.407 644.544 741.544 644.133 737.961 643.676L735.666 643.37C723.608 641.689 710.768 639.081 697.407 635.291C640.608 619.181 592.912 587.745 563.592 536.189C533.332 483.457 532.929 412.982 562.517 352.544C594.763 286.677 657.638 240.828 741.44 229.003ZM565.853 354.177C536.792 413.54 537.187 482.712 566.817 534.347C595.596 584.949 642.48 615.851 698.42 631.717C711.609 635.458 724.282 638.032 736.179 639.691L739.625 640.139C744.772 640.769 750.319 641.299 751.844 641.414L752.233 641.438L751.845 643.245L753.522 642.44L754.398 644.27C754.638 644.756 754.911 645.297 755.219 645.896L755.708 646.838C757.417 650.097 759.459 653.68 761.852 657.513C778.483 684.155 801.425 707.224 831.1 720.611C840.266 724.745 849.878 727.82 859.944 729.743C942.126 745.428 1018.9 716.418 1059.9 630.274C1082.51 583.209 1079.62 529.157 1055.82 482.488C1034.3 440.271 998.723 411.132 965.112 408.49L963.212 408.369L961.784 408.299L960.915 404.315C960.209 401.223 959.338 397.79 958.023 393.163C955.336 383.71 951.927 373.599 947.708 363.118C928.147 314.516 898.449 274.223 856.542 250.902C824.252 232.933 786.242 226.214 741.968 232.68C659.38 244.333 597.559 289.414 565.853 354.177ZM745.498 243.78C820.196 232.674 875.668 260.447 914.588 314.909C928.372 334.197 939.128 355.616 947.237 377.694C950.149 385.624 952.535 393.151 954.445 400.111L955.646 404.651L956.728 409.197L957.261 409.232C989.763 411.921 1023.54 439.235 1044.39 478.791L1045.62 481.179C1068.45 526.147 1071.15 578.25 1049.28 623.605C1009.86 706.213 935.834 734.099 856.989 718.966C847.245 717.095 837.939 714.111 829.067 710.103C800.392 697.151 778.308 674.94 762.292 649.299C759.997 645.625 758.033 642.184 756.383 639.042L755.104 636.541L754.701 635.727L750.793 635.347C748.849 635.144 746.522 634.885 744.232 634.601L740.576 634.118C729.218 632.509 717.151 630.036 704.593 626.457C651.196 611.237 606.328 581.678 578.627 533.273C550.164 483.532 549.72 417.179 577.455 360.274C607.68 298.257 666.717 255.042 745.498 243.78ZM580.794 361.901C553.582 417.733 554.018 482.788 581.851 531.428C609.007 578.881 653.068 607.908 705.612 622.884C716.449 625.973 726.916 628.227 736.866 629.805L741.098 630.441C743.521 630.784 746.363 631.124 748.931 631.408L756.309 632.134L755.913 633.951L757.593 633.143L758.393 634.811L759.672 637.315C761.28 640.377 763.198 643.738 765.443 647.332C781.103 672.404 802.688 694.112 830.597 706.718C839.207 710.608 848.235 713.503 857.69 715.318C935.01 730.158 1007.31 702.92 1045.94 621.998C1067.27 577.736 1064.63 526.841 1042.31 482.86C1022.13 443.096 988.706 415.594 957.017 412.939L955.118 412.81L953.696 412.735L953.399 411.343C952.818 408.627 952.069 405.49 950.863 401.094C948.979 394.231 946.625 386.803 943.75 378.974C935.749 357.189 925.139 336.062 911.566 317.068C873.41 263.676 819.265 236.568 746.034 247.455C668.466 258.545 610.481 300.989 580.794 361.901ZM749.551 258.552C819.591 247.93 871.767 273.777 908.513 324.705C921.555 342.78 931.764 362.889 939.486 383.65C941.808 389.892 943.785 395.882 945.443 401.524L946.399 404.867C947.149 407.56 947.744 409.867 948.216 411.834L948.637 413.648L949.138 413.684C979.737 416.368 1011.4 442.074 1030.91 479.221L1032.11 481.558C1053.46 523.837 1055.91 572.78 1035.31 615.325C998.271 692.717 928.724 718.826 854.726 704.544C845.595 702.782 836.873 699.977 828.558 696.215C801.647 684.041 780.917 663.187 765.877 639.117C764.16 636.369 762.64 633.76 761.308 631.32L759.816 628.505L758.773 626.419L753.253 625.853C751.946 625.707 750.543 625.543 749.153 625.37L745.487 624.882C734.828 623.357 723.537 621.033 711.788 617.678C661.718 603.383 619.66 575.69 593.668 530.356C566.907 483.689 566.398 421.459 592.314 368.047C620.545 309.865 675.79 269.253 749.551 258.552ZM595.656 369.669C570.261 422.007 570.76 482.94 596.891 528.509C622.338 572.891 663.59 600.055 712.807 614.106C722.938 616.999 732.724 619.114 742.047 620.604L746.013 621.205C747.788 621.46 749.819 621.714 751.785 621.944L760.381 622.839L759.994 624.652L761.666 623.852L762.234 625.04C762.635 625.861 763.098 626.776 763.633 627.793C765.138 630.656 766.931 633.794 769.027 637.149C783.712 660.651 803.943 681.003 830.089 692.831C838.144 696.475 846.588 699.191 855.43 700.897C927.904 714.885 995.731 689.421 1031.97 613.714C1052.03 572.259 1049.65 524.525 1028.8 483.232C1009.94 445.906 978.657 420.035 948.878 417.39L947.018 417.255L945.602 417.175L945.306 415.788C944.785 413.343 943.999 410.094 942.821 405.864C941.011 399.362 938.753 392.334 936.005 384.945C928.391 364.477 918.33 344.659 905.501 326.879C869.523 277.015 818.675 251.826 750.096 262.226C677.546 272.752 623.351 312.591 595.656 369.669ZM753.606 273.326C818.991 263.187 867.87 287.105 902.443 334.503C914.741 351.364 924.402 370.162 931.739 389.607C934.4 396.658 936.593 403.383 938.359 409.623C938.886 411.487 939.342 413.187 939.73 414.708L940.55 418.095L941.021 418.134C969.715 420.811 999.254 444.913 1017.43 479.657L1018.6 481.938C1038.48 521.531 1040.67 567.316 1021.34 607.052C986.676 679.222 921.601 703.559 852.465 690.125C843.947 688.47 835.809 685.845 828.049 682.327C802.908 670.932 783.537 651.44 769.469 628.939C767.871 626.382 766.454 623.953 765.21 621.678L763.814 619.05L762.841 617.116L758.215 616.629C756.914 616.483 755.492 616.315 754.08 616.138L750.395 615.644C740.436 614.202 729.92 612.026 718.979 608.897C672.236 595.527 632.987 569.698 608.7 527.437C583.647 483.841 583.077 425.737 607.175 375.823C633.413 321.477 684.866 283.471 753.606 273.326ZM610.52 377.438C586.94 426.278 587.498 483.087 611.92 525.586C635.663 566.899 674.108 592.198 720 605.325C729.426 608.021 738.531 609.998 747.226 611.401L750.928 611.968C754.577 612.496 759.473 613.041 762.263 613.331L764.452 613.541L764.062 615.357L765.735 614.55L766.283 615.692C766.661 616.464 767.095 617.32 767.596 618.269C769.002 620.936 770.671 623.854 772.619 626.97C786.333 648.904 805.205 667.895 829.583 678.944C837.083 682.343 844.944 684.88 853.174 686.479C920.785 699.616 984.14 675.923 1017.99 605.435C1036.8 566.787 1034.67 522.21 1015.28 483.605C997.759 448.713 968.608 424.472 940.741 421.839L938.926 421.698L937.517 421.612L936.797 418.341C936.312 416.273 935.647 413.68 934.785 410.634C933.047 404.493 930.886 397.867 928.264 390.918C921.038 371.766 911.526 353.259 899.442 336.692C866.17 291.078 819.574 267.818 757.147 276.558L754.162 276.999C686.63 286.965 636.224 324.198 610.52 377.438ZM757.667 288.099C818.391 278.442 863.973 300.434 896.369 344.297C907.926 359.946 917.04 377.436 923.989 395.562C926.524 402.175 928.622 408.502 930.314 414.378L931.26 417.774C931.546 418.839 931.802 419.833 932.028 420.742L932.458 422.546L932.951 422.589C994.292 428.486 1041.93 524.186 1008.42 596.564L1007.37 598.772C975.092 665.725 914.491 688.286 850.211 675.704C842.309 674.157 834.76 671.712 827.559 668.443C804.172 657.825 786.149 639.685 773.052 618.751C771.666 616.534 770.426 614.421 769.326 612.429L767.494 608.989L766.909 607.813L762.465 607.328C761.272 607.19 759.979 607.034 758.7 606.87L755.306 606.408C746.046 605.05 736.306 603.024 726.172 600.119C682.754 587.674 646.315 563.712 623.737 524.525C600.39 483.996 599.756 430.015 622.037 383.596C646.281 333.087 693.945 297.684 757.667 288.099ZM625.386 385.204C603.62 430.548 604.239 483.236 626.956 522.67C648.988 560.911 684.625 584.347 727.195 596.548C735.737 598.996 743.996 600.811 751.914 602.12L755.845 602.733C757.917 603.037 760.457 603.352 762.718 603.616L768.524 604.246L768.129 606.063L769.809 605.258L771.014 607.711L771.556 608.744C772.859 611.21 774.402 613.905 776.201 616.781C788.944 637.149 806.47 654.789 829.095 665.061C836.036 668.212 843.311 670.568 850.924 672.059C913.681 684.342 972.561 662.422 1004.03 597.15C1021.56 561.31 1019.69 519.892 1001.77 483.976C985.572 451.519 958.553 428.909 932.594 426.29L930.825 426.143L929.424 426.051L928.724 422.88C928.331 421.219 927.803 419.167 927.15 416.836L926.744 415.406C925.081 409.628 923.016 403.401 920.52 396.891C913.684 379.058 904.721 361.859 893.381 346.504C862.281 304.396 818.957 283.049 761.138 291.331L758.235 291.769C695.718 301.174 649.099 335.801 625.386 385.204ZM761.721 302.866C817.788 293.692 860.077 313.757 890.297 354.088C901.113 368.525 909.683 384.707 916.242 401.513C919.929 410.962 922.579 419.579 924.071 425.7L924.372 427.001L924.742 427.029C981.754 432.838 1025.56 521.532 994.37 588.455L993.391 590.497C963.504 652.232 907.368 673.021 847.946 661.281C840.658 659.842 833.693 657.577 827.049 654.553C805.43 644.713 788.764 627.933 776.641 608.568C775.366 606.531 774.224 604.588 773.209 602.754L771.626 599.796L770.976 598.509L764.788 597.79C763.539 597.634 762.261 597.466 761.082 597.299L760.219 597.173C751.663 595.9 742.698 594.022 733.372 591.343C693.28 579.822 659.649 557.723 638.779 521.607C617.134 484.153 616.435 434.297 636.896 391.373C659.146 344.699 703.019 311.897 761.721 302.866ZM640.249 392.972C620.3 434.821 620.981 483.386 641.996 519.749C662.32 554.922 695.152 576.495 734.398 587.773C743.557 590.404 752.363 592.249 760.766 593.499L765.267 594.105L772.594 594.949L772.197 596.769L773.88 595.96L774.935 598.107L775.518 599.219C776.719 601.487 778.138 603.96 779.789 606.597C791.559 625.398 807.729 641.679 828.588 651.172C834.974 654.078 841.665 656.254 848.666 657.637C906.565 669.076 960.978 648.925 990.053 588.867C1022.02 523.952 979.287 436.347 924.394 430.727L922.727 430.582L921.334 430.482L921.043 429.117C919.777 423.174 916.961 413.572 912.781 402.863C906.337 386.351 897.922 370.46 887.324 356.316C857.888 317.031 816.929 297.596 762.304 306.534C704.803 315.381 661.972 347.404 640.249 392.972ZM762.807 318.135L765.776 317.642C817.186 308.946 856.18 327.082 884.221 363.879C894.298 377.103 902.322 391.979 908.491 407.463C912.011 416.297 914.59 424.518 916.015 430.296L916.285 431.448L916.536 431.47C969.218 437.189 1009.21 518.883 980.326 580.351L979.42 582.227C951.914 638.736 900.251 657.749 845.683 646.859C839.008 645.528 832.627 643.442 826.539 640.664C806.685 631.604 791.378 616.182 780.229 598.385C779.066 596.528 778.022 594.755 777.092 593.078L775.67 590.427L775.211 589.532L772.372 589.103C764.627 587.889 750.369 585.291 741.441 582.814L740.572 582.569C703.803 571.974 672.978 551.738 653.814 518.69C633.875 484.305 633.113 438.572 651.756 399.146C671.637 357.101 710.616 327.234 762.807 318.135ZM655.114 400.734C636.979 439.086 637.719 483.53 657.027 516.827C675.646 548.934 705.675 568.647 741.601 578.999C749.953 581.406 757.986 583.101 765.687 584.266L770.078 584.867L776.665 585.652L776.278 587.47L777.952 586.662L778.891 588.57L779.48 589.692C780.58 591.763 781.874 594.015 783.377 596.414C794.173 613.648 808.986 628.571 828.081 637.285C833.912 639.946 840.02 641.942 846.41 643.216C899.456 653.803 949.395 635.424 976.087 580.588C1005.58 521.161 966.717 440.728 916.211 435.171L914.629 435.022L913.247 434.913L912.958 433.558C911.772 428.009 909.022 418.833 905.04 408.838C898.988 393.647 891.122 379.063 881.266 366.13C854.017 330.371 816.353 312.854 766.375 321.308C713.89 329.589 674.846 359.003 655.114 400.734ZM766.959 332.905L769.82 332.413C816.576 324.198 852.282 340.406 878.143 373.666C887.483 385.679 894.964 399.25 900.74 413.411C903.758 420.81 906.088 427.87 907.513 433.176L908.202 435.908L908.423 435.929C956.693 441.636 992.783 516.167 966.326 572.132L965.441 573.951C940.32 625.234 893.135 642.471 843.429 632.439C837.369 631.216 831.576 629.312 826.046 626.782C807.945 618.498 793.984 604.426 783.807 588.192C781.986 585.287 780.749 583.094 779.69 581.025L779.266 580.181L776.319 579.729C769.678 578.658 758.235 576.545 750.273 574.473L747.77 573.788C714.325 564.117 686.31 545.747 668.854 515.772C628.536 446.551 673.033 349.957 766.959 332.905ZM672.064 513.903C688.975 542.942 716.197 560.792 748.802 570.219C755.09 572.038 761.179 573.414 767.086 574.449L770.608 575.029C772.094 575.258 773.998 575.513 775.754 575.738L780.738 576.355L780.341 578.171L782.022 577.366C783.125 579.659 784.28 581.856 786.121 584.873L786.954 586.219C796.779 601.892 810.247 615.467 827.592 623.404C832.866 625.817 838.388 627.633 844.164 628.798C892.349 638.523 937.809 621.916 962.112 572.302C989.12 518.378 954.161 445.153 908.065 439.627L906.524 439.468L905.154 439.35L904.868 438.005C903.766 432.831 901.09 424.105 897.301 414.814C891.645 400.948 884.325 387.669 875.21 375.946C850.612 344.31 817.044 328.694 772.947 335.657L770.44 336.076C677.114 351.25 632.647 446.229 672.064 513.903ZM771.302 347.648L773.87 347.191C815.968 339.45 848.384 353.727 872.062 383.452C886.081 401.051 895.571 422.513 899.562 438.058L900.115 440.363L900.293 440.381C944.166 446.058 976.378 513.47 952.325 563.945L951.473 565.678C928.728 611.747 886.013 627.205 841.163 618.017C835.717 616.902 830.508 615.177 825.536 612.892C809.199 605.384 796.592 592.668 787.39 578.001C785.837 575.526 784.73 573.579 783.798 571.785L783.316 570.842L778.505 570.054C771.871 568.905 762.099 567.004 755.775 565.244L754.976 565.018C724.854 556.273 699.643 539.766 683.894 512.862C647.392 450.52 687.01 363.456 771.302 347.648ZM687.099 510.985C702.303 536.958 726.725 552.948 756.012 561.45C761.628 563.081 767.068 564.322 772.37 565.266L776.223 565.904L784.808 567.059L784.422 568.872L786.094 568.069L787.096 570.074C787.629 571.101 788.223 572.182 788.936 573.397L790.536 576.027C799.388 590.134 811.503 602.355 827.087 609.516C831.806 611.685 836.745 613.32 841.909 614.378C885.239 623.255 926.227 608.421 948.151 564.017C972.671 515.585 941.591 449.547 899.896 444.075L898.42 443.907L897.066 443.777L896.782 442.447C895.742 437.58 893.16 429.377 889.562 420.793C884.304 408.253 877.531 396.279 869.157 385.767C846.755 357.643 816.471 343.933 776.993 350.418L774.514 350.849C691.007 364.924 651.539 450.251 687.099 510.985ZM775.645 362.387L777.919 361.965C815.362 354.7 844.492 367.046 865.982 393.233C878.847 408.911 887.807 428.523 891.512 442.689L892.028 444.819L892.177 444.837C931.637 450.482 959.971 510.774 938.32 555.748L937.495 557.406C917.133 598.252 878.887 611.937 838.9 603.599C834.063 602.59 829.436 601.043 825.016 599.001C810.44 592.268 799.185 580.899 790.962 567.801C789.865 566.053 788.99 564.55 788.258 563.201L787.37 561.499L782.871 560.738C776.948 559.682 768.428 557.991 762.938 556.459L762.182 556.244C735.379 548.422 712.972 533.78 698.929 509.947C666.253 454.483 700.992 376.953 775.645 362.387ZM702.129 508.061C715.628 530.969 737.249 545.099 763.223 552.678C769.156 554.41 774.871 555.657 780.467 556.566L788.882 557.763L788.49 559.578L790.167 558.776C790.963 560.435 791.94 562.279 793.36 564.616L794.108 565.826C801.981 578.367 812.748 589.242 826.574 595.629C830.742 597.555 835.102 599.012 839.659 599.963C878.127 607.984 914.644 594.917 934.181 555.73C956.219 512.805 929.027 453.957 891.751 448.528L890.312 448.346L888.976 448.202L888.695 446.887C885.756 433.135 876.635 412.07 863.11 395.59C842.89 370.951 815.852 359.141 780.935 365.188L778.595 365.617C704.907 378.592 670.435 454.264 702.129 508.061ZM779.974 377.127L781.955 376.74C814.742 369.947 840.591 380.361 859.892 403.009C872.114 417.352 880.723 435.942 883.862 448.895L883.946 449.279L884.115 449.304C919.113 454.96 943.533 508.048 924.345 547.505L923.521 549.141C905.54 584.76 871.768 596.66 836.636 589.171C823.24 586.317 811.995 578.937 802.789 568.598C799.49 564.894 796.66 561.029 794.276 557.182C793.25 555.527 792.447 554.115 791.786 552.862L791.421 552.161L788.039 551.567C783.295 550.704 776.51 549.352 771.653 548.098L769.404 547.482C745.916 540.588 726.31 527.807 713.969 507.038C685.11 458.455 714.967 390.452 779.974 377.127ZM717.162 505.141C728.958 524.992 747.786 537.266 770.45 543.918C774.551 545.122 778.534 546.064 782.464 546.813L786.057 547.446L792.952 548.466L792.558 550.283L794.238 549.477C796.302 553.763 799.394 558.845 803.979 564.297L805.563 566.128C814.281 575.918 824.866 582.865 837.41 585.538C871.027 592.704 903.069 581.413 920.216 547.444C939.76 510.028 916.47 458.401 883.632 452.989L882.198 452.783L880.885 452.622L880.608 451.328C877.954 438.909 869.386 419.878 857.064 405.418C839.04 384.267 815.252 374.353 784.904 379.948L782.671 380.385C718.805 392.254 689.326 458.279 717.162 505.141ZM784.114 391.907L785.987 391.514C814.119 385.186 836.695 393.666 853.798 412.778C864.384 424.609 872.177 440.204 875.368 451.803L875.863 453.756L876.014 453.78C906.581 459.385 927.132 505.354 910.337 539.311L909.536 540.87C893.937 571.268 864.636 581.389 834.364 574.748C822.933 572.241 813.306 565.917 805.398 557.086C802.547 553.902 800.091 550.573 798.013 547.251C797.191 545.937 796.507 544.754 795.941 543.706L795.396 542.668L789.711 541.77C785.401 541.015 781.096 540.039 776.631 538.718C756.452 532.747 739.647 521.829 729.014 504.127C703.993 462.484 728.881 404.099 784.114 391.907ZM732.198 502.214C742.286 519.009 758.321 529.426 777.684 535.156C782.004 536.434 786.174 537.379 790.352 538.111L797.026 539.171L796.634 540.989L798.311 540.184C800.054 543.817 802.824 548.33 806.796 553.034L808.165 554.608C815.591 562.899 824.567 568.797 835.16 571.12C863.919 577.429 891.487 567.906 906.245 539.146C923.316 507.215 903.871 462.754 875.438 457.451L874.078 457.229L872.792 457.047L872.521 455.777C870.132 444.584 862.165 427.7 851.03 415.256C835.234 397.604 814.722 389.573 788.977 394.677L786.758 395.147C732.706 405.922 708.213 462.296 732.198 502.214ZM788.246 406.703L790.006 406.297C813.485 400.423 832.798 406.962 847.692 422.535C857.161 432.435 864.299 445.841 867.268 456.258L867.781 458.225L867.89 458.247C894.039 463.771 910.762 502.685 896.321 531.167L895.56 532.606C882.331 557.783 857.493 566.126 832.091 560.325C822.623 558.166 814.617 552.897 808.008 545.572C804.257 541.415 801.486 537.233 799.67 533.761L799.468 533.36L794.643 532.545C791.065 531.885 787.539 531.064 783.889 529.973C767.013 524.93 752.993 515.869 744.056 501.221C722.883 466.507 742.801 417.751 788.246 406.703ZM747.227 499.286C755.619 513.04 768.879 521.611 784.953 526.414C787.586 527.201 790.156 527.843 792.734 528.384L796.51 529.102L801.094 529.872L800.706 531.69L802.381 530.884C803.833 533.904 806.203 537.73 809.49 541.623L810.766 543.084C816.899 549.881 824.269 554.732 832.918 556.704C856.81 562.16 879.912 554.4 892.29 530.845C906.881 504.382 891.247 467.068 867.218 461.902L865.945 461.66L864.696 461.454L864.432 460.215C862.281 450.125 854.975 435.524 845.008 425.103C831.433 410.91 814.144 404.756 792.92 409.427L790.853 409.913C746.62 419.58 727.104 466.294 747.227 499.286ZM792.32 421.532L794.004 421.088C826.723 411.64 852.205 434.425 859.279 460.971L859.707 462.711C881.497 468.136 894.421 500.049 882.286 523.059L881.572 524.351C870.708 544.301 850.354 550.85 829.812 545.902C822.311 544.094 815.926 539.882 810.622 534.07C807.922 531.112 805.766 528.036 804.248 525.369L803.531 524.053L799.594 523.326C796.76 522.765 794.016 522.102 791.188 521.245C777.589 517.127 766.341 509.918 759.098 498.318C741.771 470.567 756.707 431.464 792.32 421.532ZM762.249 496.35C768.946 507.077 779.451 513.809 792.265 517.69C794.966 518.508 797.593 519.144 800.315 519.682L805.166 520.576L804.774 522.396L806.454 521.589C807.615 524.01 809.581 527.143 812.202 530.242L813.365 531.566C818.204 536.869 823.973 540.673 830.682 542.291C849.722 546.877 868.337 540.887 878.332 522.534C890.466 501.522 878.586 471.307 858.94 466.347L857.798 466.089L856.6 465.851L856.345 464.656C850.91 439.214 827.317 416.432 796.677 424.211L794.968 424.675C760.546 433.231 745.978 470.291 762.249 496.35ZM797.962 435.889C823.114 426.96 845.124 443.765 851.214 465.571L851.634 467.215C868.952 472.487 878.104 497.437 868.248 514.987L867.578 516.12C859.062 530.831 843.175 535.578 827.521 531.468C818.337 529.062 811.544 522.169 807.806 515.141L807.599 514.741L804.607 514.129C802.56 513.685 800.61 513.187 798.619 512.574C788.245 509.381 779.727 504.009 774.157 495.426C760.398 474.219 771.031 444.036 797.962 435.889ZM777.273 493.404C782.297 501.146 790.097 506.064 799.711 509.024C800.967 509.41 802.208 509.749 803.473 510.057L805.856 510.597L809.239 511.28L808.846 513.097L810.526 512.292C811.431 514.177 812.969 516.584 814.938 518.899L815.958 520.047C819.502 523.861 823.677 526.621 828.463 527.875C842.629 531.594 856.775 527.367 864.393 514.21C874.058 498.64 865.904 475.528 850.675 470.804L849.626 470.511L848.501 470.231L848.259 469.097C843.834 448.391 823.831 431.683 800.638 438.912L799.121 439.417C774.495 446.869 764.848 474.253 777.273 493.404ZM801.821 450.751C819.941 441.76 838.813 452.984 843.5 471.469L843.56 471.755C856.41 476.831 861.833 494.88 854.201 506.96L853.554 507.926C847.351 517.387 835.927 520.312 825.189 517.027C819.257 515.219 814.481 510.565 811.824 505.723L811.666 505.42L810.682 505.203C801.585 503.078 795.053 500.052 790.179 493.847L789.226 492.563C779.283 478.382 784.86 457.969 801.821 450.751ZM792.268 490.43C796.552 496.54 802.651 499.503 811.503 501.58L813.311 501.984L812.918 503.798L814.598 502.998C816.533 507.036 820.371 511.183 825.079 513.055L826.273 513.474C835.553 516.313 845.24 513.833 850.486 505.832C857.679 495.705 853.164 479.676 842.402 475.289L841.407 474.923L840.394 474.589L840.171 473.547C836.529 456.496 819.654 446.049 803.374 454.124C788.507 460.453 783.668 478.166 792.268 490.43ZM805.37 465.893L805.966 465.337C816.311 455.984 831.588 460.617 835.489 476.241L835.515 476.346L836.459 476.919C843.971 481.867 845.491 492.629 840.149 499.06L839.964 499.278L839.34 499.947C833.054 506.233 821.466 504.93 816.293 497.036L815.734 496.117L815.425 496.043C800.356 492.158 795.654 477.623 804.077 467.334L804.751 466.551L805.37 465.893ZM807.996 468.518L807.486 469.064C799.857 477.502 803.786 489.786 817.38 492.688L818.271 492.878L818.666 493.699C822.067 500.768 831.781 502.253 836.714 497.32C841.649 492.385 840.163 482.674 833.092 479.272L832.271 478.877L831.81 476.845C828.481 464.177 816.655 460.68 808.479 468.072L807.996 468.518Z" fill="#020101"/>
</g>
</g>
<defs>
<clipPath id="clip0_1_320">
<rect width="912" height="865" fill="white" transform="translate(344.5 48.4502)"/>
</clipPath>
</defs>
</svg>
